<?xml version="1.0" encoding="UTF-8"?>
<!DOCTYPE svg PUBLIC "-//W3C//DTD SVG 1.1//EN" "http://www.w3.org/Graphics/SVG/1.1/DTD/svg11.dtd">
<!-- Creator: CorelDRAW 2021 (64 Bit) -->
<svg xmlns="http://www.w3.org/2000/svg" xml:space="preserve" width="67.1769mm" height="67.7333mm" version="1.1" style="shape-rendering:geometricPrecision; text-rendering:geometricPrecision; image-rendering:optimizeQuality; fill-rule:evenodd; clip-rule:evenodd"
viewBox="0 0 3098.84 3124.5"
 xmlns:xlink="http://www.w3.org/1999/xlink"
 xmlns:xodm="http://www.corel.com/coreldraw/odm/2003">
 <defs>
  <style type="text/css">
   <![CDATA[
    .fil1 {fill:black;fill-rule:nonzero}
    .fil0 {fill:#1E1E1E;fill-rule:nonzero}
   ]]>
  </style>
 </defs>
 <g id="Camada_x0020_1">
  <metadata id="CorelCorpID_0Corel-Layer"/>
  <g id="_2219301054112">
   <path class="fil0" d="M1270.23 1597.39l69.35 32.26 -69.35 32.12 0 -64.38zm551.78 64.7l-69.36 -32.27 69.36 -32.12 0 64.39zm636.57 -34.36c0,109.1 -66.68,209.86 -166.64,252.92l-295.58 -137.48 0 -226.89 61.11 -28.4 0.02 0.06 239.01 -111.23c98.7,44.1 162.08,141.85 162.08,251.02zm-657.41 746.33c-44.11,98.71 -141.86,162.1 -251.03,162.1 -109.11,0 -209.88,-66.68 -252.93,-166.65l137.48 -295.57 226.89 0 33.19 71.34 -0.06 0.04 106.47 228.73zm-506.06 -1520.88c44.1,-98.7 141.86,-162.09 251.01,-162.09 109.12,0 209.89,66.69 252.93,166.64l-137.47 295.58 -226.89 0 -33.8 -72.66 0.08 -0.06 -105.87 -227.41zm253.11 543.84l-32.12 -69.35 64.38 0 -32.26 69.35zm-914.56 234.72c0,-109.11 66.68,-209.87 166.64,-252.93l295.58 137.48 0 226.89 -61.56 28.64 -0.04 -0.07 -238.52 111.02c-98.71,-44.09 -162.09,-141.85 -162.09,-251.01zm914.38 198.48l32.13 69.36 -64.38 0 32.25 -69.36zm994.22 68.28c59.31,-78.52 90.67,-172.16 90.67,-270.77 0,-97.45 -30.66,-190.17 -88.69,-268.14 -18.73,-25.18 -39.87,-48.23 -63.06,-68.8l110.11 -51.2 -73.52 -158.09 -477.74 222.2c-3.59,1.59 -7.07,3.21 -9.7,4.51l-208.32 96.89 0 0.54 -108.99 50.52 383.35 -824.23 -158.09 -73.54 -52.71 113.31c-20.56,-23.77 -43.59,-45.32 -68.69,-64.29 -78.5,-59.31 -172.13,-90.67 -270.77,-90.67 -97.45,0 -190.17,30.68 -268.12,88.69 -25.18,18.72 -48.24,39.87 -68.8,63.07l-51.2 -110.12 -158.11 73.52 222.19 477.71c1.59,3.58 3.21,7.05 4.53,9.74l96.89 208.32 0.54 0 60.52 130.6 -810.07 -376.78 -73.55 158.08 113.31 52.72c-23.74,20.56 -45.29,43.58 -64.26,68.7 -59.33,78.5 -90.68,172.13 -90.68,270.75 0,97.44 30.67,190.16 88.69,268.14 18.74,25.18 39.89,48.23 63.07,68.79l-110.11 51.22 73.52 158.09 477.74 -222.21c3.59,-1.58 7.07,-3.21 9.71,-4.5l208.32 -96.89 0 -0.54 95.02 -44.04 -365.36 785.53 158.09 73.54 52.71 -113.3c20.57,23.75 43.6,45.3 68.7,64.27 78.52,59.31 172.15,90.68 270.76,90.68 97.43,0 190.15,-30.67 268.14,-88.7 25.17,-18.73 48.23,-39.87 68.79,-63.06l51.21 110.11 158.1 -73.54 -222.2 -477.7c-1.57,-3.57 -3.18,-7.02 -4.5,-9.71l-96.89 -208.33 -0.55 0 -40.38 -87.14 785.9 365.54 73.54 -158.09 -113.3 -52.71c23.76,-20.58 45.31,-43.61 64.28,-68.69z"/>
   <path class="fil1" d="M2228.63 327.93c17.29,9.46 36.18,5.67 44.02,-8.66 7.98,-14.6 1.44,-28.66 -13.67,-42.11 -12.41,-11.08 -16.29,-21.31 -11.13,-30.75 5.14,-9.4 17.44,-11.82 28.51,-5.77 11.27,6.17 15.4,18.59 9.75,28.93l8.84 4.83c7.98,-14.59 1.81,-32.27 -14.52,-41.2 -16.29,-8.91 -34.26,-5.11 -41.75,8.58 -7.61,13.92 -1.97,28.03 12.37,40.52 13.12,11.67 17.97,22.58 12.52,32.54 -5.43,9.93 -18.66,12.36 -30.73,5.76 -12.11,-6.62 -16.95,-20.11 -10.98,-31.02l-8.84 -4.83c-8.27,15.12 -1.52,33.81 15.61,43.17z"/>
   <path class="fil1" d="M2505.46 525.47c24.3,22.14 58.3,21.63 78.97,-1.06 20.67,-22.69 18.04,-56.62 -6.26,-78.76 -24.13,-21.99 -58.2,-21.47 -78.86,1.21 -20.67,22.69 -17.98,56.62 6.16,78.6zm6.09 -6.69c-19.87,-18.1 -22.11,-46.12 -4.79,-65.13 17.32,-19.01 45.42,-19.38 65.29,-1.29 20.04,18.25 22.15,46.14 4.83,65.16 -17.32,19.01 -45.29,19.51 -65.33,1.25z"/>
   <polygon class="fil1" points="2727.23,762.43 2806.19,708.65 2800.69,700.58 2714.47,759.31 2745.93,805.51 2753.19,800.56 "/>
   <path class="fil1" d="M2875.97 1062.84c9.21,23.41 32.83,34.75 54.93,26.05l60.07 -23.64 -3.62 -9.22 -60.07 23.64c-17.19,6.77 -35.68,-1.82 -42.89,-20.15 -7.27,-18.47 0.41,-37.34 17.6,-44.11l60.07 -23.64 -3.64 -9.25 -60.07 23.64c-22.09,8.7 -31.64,33.14 -22.37,56.67z"/>
   <path class="fil1" d="M2972.68 1404.53c-3.4,-26.66 13.05,-49.45 38.56,-52.7 25.51,-3.26 47.15,14.68 50.55,41.34 2.76,21.62 -7.33,40.34 -24.43,48.66l1.34 10.5c22.13,-9.46 35.58,-33.1 32.11,-60.31 -4.13,-32.38 -30.4,-54.07 -60.84,-50.19 -29.26,3.73 -48.85,29.3 -46.61,60.05l-9.73 -5.85 -1.69 5.66c1.35,1.15 2.72,3.4 3,5.61 0.63,4.91 -2.37,9.18 -7.18,9.8 -4.63,0.59 -8.74,-2.78 -9.36,-7.69 -0.6,-4.77 2.5,-9.2 7.14,-9.79l-0.77 -6.03c-7.48,0.95 -12.67,8.07 -11.59,16.5 1.07,8.42 7.9,14.18 15.38,13.23 7.52,-0.96 12.6,-7.6 11.61,-15.4 -0.08,-0.62 -0.18,-1.44 -0.4,-2.05l4.34 2.84c4.47,25.61 22.97,43.9 45.78,47.3l-1.34 -10.49c-18.59,-3.76 -33.1,-19.35 -35.86,-40.97z"/>
   <path class="fil1" d="M3079.62 1792.35c-1.13,9.06 4.73,15.73 13.75,16.86l0.87 -6.98c-4.97,-0.62 -8.08,-4.85 -7.44,-9.94 0.99,-7.98 10.64,-9.84 11.91,-20.02 1.11,-8.88 -4.88,-15.62 -13.72,-16.72l-0.85 6.85c4.76,0.59 8.07,4.9 7.42,10.12 -1,7.98 -10.69,9.83 -11.93,19.84zm-116.11 -25.63c-4.06,32.62 15.97,60.1 46.42,63.89 30.45,3.79 56.66,-17.92 60.72,-50.55 4.04,-32.39 -16.03,-59.92 -46.48,-63.71 -30.45,-3.79 -56.62,17.98 -60.66,50.37zm8.97 1.12c3.33,-26.67 24.92,-44.66 50.44,-41.48 25.52,3.18 42.04,25.92 38.71,52.59 -3.35,26.9 -24.91,44.71 -50.44,41.53 -25.52,-3.18 -42.06,-25.74 -38.71,-52.64z"/>
   <polygon class="fil1" points="2897.52,2084.25 2934.27,2098.19 2918.36,2140.13 2926.54,2143.23 2942.45,2101.29 2978.68,2115.03 2960.9,2161.9 2969.07,2165 2990.32,2109 2892.77,2072 2871.24,2128.76 2879.45,2131.88 "/>
   <path class="fil1" d="M2737.17 2378.16c-10.88,16.43 -8.7,35.57 4.91,44.59 13.87,9.18 28.44,3.86 43.11,-10.06 12.1,-11.44 22.62,-14.43 31.58,-8.49 8.93,5.92 10.3,18.37 3.33,28.9 -7.09,10.71 -19.82,13.77 -29.64,7.27l-5.57 8.4c13.87,9.18 32,4.53 42.29,-10.99 10.25,-15.48 7.98,-33.71 -5.02,-42.32 -13.23,-8.76 -27.77,-4.34 -41.42,8.9 -12.74,12.09 -24.02,16 -33.49,9.73 -9.43,-6.25 -10.74,-19.64 -3.14,-31.11 7.62,-11.5 21.47,-15.19 31.83,-8.32l5.56 -8.4c-14.36,-9.52 -33.56,-4.37 -44.34,11.91z"/>
   <path class="fil1" d="M2270.72 2824.19l-9.34 5.89 95.05 63.4 10.02 -6.32 -16.2 -113.12 -9.1 5.74 4.57 30.92 -49.04 30.92 -25.96 -17.43zm76.34 -4.15l9.19 61.75 -51.86 -34.85 42.67 -26.9z"/>
   <path class="fil1" d="M1998.82 2946.27c-23.83,8.06 -36.32,31.1 -28.71,53.59l20.67 61.15 9.38 -3.17 -20.68 -61.16c-5.92,-17.5 3.56,-35.54 22.23,-41.85 18.8,-6.36 37.28,2.24 43.19,19.74l20.68 61.15 9.42 -3.18 -20.68 -61.15c-7.6,-22.49 -31.55,-33.22 -55.51,-25.12z"/>
   <polygon class="fil1" points="1644.83,3124.5 1721.7,3117.41 1720.89,3108.71 1687.39,3111.8 1678.61,3016.62 1668.75,3017.53 1677.54,3112.71 1644.03,3115.8 "/>
   <path class="fil1" d="M1341.37 3007.24c-32.62,-4.06 -60.1,15.97 -63.89,46.42 -3.79,30.45 17.93,56.65 50.55,60.72 32.39,4.04 59.92,-16.03 63.72,-46.48 3.79,-30.45 -17.98,-56.62 -50.37,-60.66zm-1.12 8.98c26.67,3.32 44.67,24.91 41.48,50.43 -3.18,25.52 -25.92,42.04 -52.59,38.71 -26.9,-3.35 -44.71,-24.92 -41.53,-50.44 3.18,-25.52 25.74,-42.06 52.64,-38.71z"/>
   <polygon class="fil1" points="902.98,2990.24 978.97,2923.38 984.55,3024.44 996.65,3029.51 1036.99,2933.3 1027.99,2929.53 993.43,3011.94 987.79,2912.67 980.55,2909.63 905.83,2975.21 940.39,2892.79 931.39,2889.02 891.05,2985.23 "/>
   <path class="fil1" d="M665.86 2723.88c-26.04,-20.07 -59.88,-16.77 -78.62,7.53 -18.73,24.31 -13.33,57.91 12.7,77.98 25.86,19.93 59.76,16.63 78.49,-7.68 18.74,-24.31 13.28,-57.9 -12.58,-77.83zm-5.52 7.16c21.29,16.41 25.82,44.15 10.12,64.52 -15.7,20.37 -43.68,23.04 -64.97,6.63 -21.46,-16.55 -25.86,-44.17 -10.15,-64.54 15.7,-20.37 43.53,-23.16 65,-6.61z"/>
   <polygon class="fil1" points="320.86,2528.52 369.53,2588.43 376.32,2582.91 355.1,2556.8 429.29,2496.53 423.05,2488.84 348.86,2549.12 327.64,2523.01 "/>
   <polygon class="fil1" points="164.71,2260.63 156.91,2264.59 175.4,2301.03 183.2,2297.07 176.17,2283.23 253.57,2243.95 260.6,2257.8 268.44,2253.82 249.95,2217.38 242.11,2221.36 249.14,2235.2 171.74,2274.48 "/>
   <polygon class="fil1" points="36.56,1924.25 136.33,1941.31 56.67,2003.75 59.41,2014.62 149.09,1943.7 146.49,1933.44 33.89,1913.69 "/>
   <path class="fil1" d="M103.8 1567.84l-0.16 -11.03 -103.64 48.09 0.17 11.85 104.99 45.11 -0.16 -10.76 -28.77 -12.21 -0.83 -57.98 28.4 -13.08zm-36.23 67.32l-57.5 -24.33 56.77 -26.11 0.73 50.44z"/>
   <path class="fil1" d="M139.12 1281.14c4.18,-19.26 -4.8,-36.31 -20.76,-39.77 -16.25,-3.53 -27.9,6.72 -36.53,25.01 -7.12,15.04 -15.84,21.65 -26.35,19.37 -10.47,-2.27 -16.26,-13.38 -13.59,-25.72 2.73,-12.56 13.47,-20.02 24.99,-17.53l2.14 -9.85c-16.25,-3.52 -31.46,7.39 -35.41,25.58 -3.94,18.15 4.79,34.31 20.03,37.62 15.5,3.36 27.45,-6.03 35.37,-23.32 7.48,-15.89 16.57,-23.63 27.67,-21.22 11.06,2.4 17.14,14.41 14.22,27.85 -2.93,13.49 -14.5,21.94 -26.64,19.31l-2.14 9.85c16.83,3.66 32.85,-8.1 37,-27.18z"/>
   <path class="fil1" d="M391.27 724.2l22.97 -32.51 -159.6 -38.3 -24.73 35 89.49 137.5 22.44 -31.75 -16.02 -23.67 37.79 -53.47 27.66 7.2zm-84.49 18.53l-33.9 -49.71 58.21 15.31 -24.31 34.4z"/>
   <path class="fil1" d="M471.47 411.79l-43.96 40.31 103.03 112.35 26.75 -24.53 -32.85 -35.82 17.21 -15.78c23.81,-21.84 26.69,-54.73 6.67,-76.56 -20.02,-21.84 -53.04,-21.81 -76.85,0.02zm47.7 53.39l-16.53 15.15 -26.58 -28.98 16.53 -15.16c8.65,-7.94 20.68,-7.58 28.3,0.73 7.45,8.12 6.94,20.32 -1.72,28.26z"/>
   <path class="fil1" d="M837.7 333.68l34.11 -20.51 -130.68 -99.31 -36.73 22.08 26.56 161.89 33.32 -20.03 -5.13 -28.12 56.12 -33.73 22.42 17.73zm-84.8 -17.06l-11.01 -59.14 47.12 37.44 -36.11 21.7z"/>
   <path class="fil1" d="M1100.8 219.2l41.21 -13.99 -50.26 -43.86c14.09,-13.18 19.79,-32.11 13.47,-50.73 -9.37,-27.64 -39.2,-40.6 -69.61,-30.28l-54.72 18.57 48.98 144.35 34.36 -11.66 -16.76 -49.4 10.37 -3.52 42.96 40.52zm-75.18 -101.4l19.73 -6.69c10.61,-3.6 21.21,1.4 24.77,11.89 3.48,10.26 -1.88,20.68 -12.5,24.28l-19.72 6.69 -12.28 -36.17z"/>
   <path class="fil1" d="M1389.99 76.33c9.47,-7.17 15.17,-20.56 13.48,-34.17 -2.8,-22.56 -23.64,-36.45 -47.8,-33.45l-62.94 7.81 18.76 151.28 68.73 -8.52c26,-3.22 43.18,-22.71 40.21,-46.64 -2.23,-17.96 -14.88,-32.67 -30.44,-36.3zm-39.33 -35.83c8.36,-1.04 15.61,4.06 16.64,12.39 1.01,8.15 -5.01,15.08 -13.11,16.08l-19.29 2.39 -3.53 -28.47 19.29 -2.39zm16.93 89.15l-25.09 3.11 -4.05 -32.69 25.08 -3.11c9.75,-1.21 18.09,5.14 19.23,14.34 1.13,9.2 -5.43,17.14 -15.18,18.35z"/>
   <path class="fil1" d="M1650.47 157.54c32.48,2.52 58.26,-15.82 60.35,-42.73 2.33,-29.91 -20.08,-42.96 -44.14,-51.05 -15.3,-5.21 -25.61,-11.29 -24.85,-20.97 0.6,-7.75 8.26,-12.93 18.05,-12.16 10.25,0.8 17.19,8.25 16.49,17.24l37.11 2.89c2.06,-26.41 -19.75,-48.09 -51.24,-50.53 -30.82,-2.39 -55.61,15.21 -57.62,41 -2.24,28.85 19.09,43.76 42.01,51.14 14.85,4.92 27.72,11.45 26.92,21.81 -0.63,8.11 -9.26,13.85 -20.24,12.99 -11.44,-0.89 -19.69,-9.5 -18.92,-19.37l-37.11 -2.88c-2.15,27.53 20.79,50.11 53.2,52.63z"/>
  </g>
 </g>
</svg>
