<?xml version="1.0" encoding="UTF-8"?>
<!DOCTYPE svg PUBLIC "-//W3C//DTD SVG 1.1//EN" "http://www.w3.org/Graphics/SVG/1.1/DTD/svg11.dtd">
<!-- Creator: CorelDRAW 2021 (64 Bit) -->
<svg xmlns="http://www.w3.org/2000/svg" xml:space="preserve" width="104.428mm" height="25.3999mm" version="1.1" style="shape-rendering:geometricPrecision; text-rendering:geometricPrecision; image-rendering:optimizeQuality; fill-rule:evenodd; clip-rule:evenodd"
viewBox="0 0 4630.96 1126.38"
 xmlns:xlink="http://www.w3.org/1999/xlink"
 xmlns:xodm="http://www.corel.com/coreldraw/odm/2003">
 <defs>
  <style type="text/css">
   <![CDATA[
    .fil0 {fill:white;fill-rule:nonzero}
   ]]>
  </style>
 </defs>
 <g id="Camada_x0020_1">
  <metadata id="CorelCorpID_0Corel-Layer"/>
  <g id="_2293137174256">
   <path class="fil0" d="M416.37 554.84l35.61 16.58 -35.61 16.48 0 -33.06zm283.3 33.23l-35.61 -16.58 35.61 -16.47 0 33.05zm326.84 -17.65c0,56.02 -34.23,107.76 -85.55,129.87l-151.76 -70.59 0 -116.51 31.37 -14.58 0.01 0.04 122.71 -57.12c50.68,22.65 83.22,72.85 83.22,128.89zm-337.53 383.21c-22.65,50.67 -72.85,83.23 -128.89,83.23 -56.03,0 -107.76,-34.24 -129.86,-85.57l70.58 -151.76 116.5 0 17.04 36.63 -0.03 0.02 54.66 117.45zm-259.84 -780.89c22.65,-50.68 72.83,-83.22 128.89,-83.22 56.03,0 107.75,34.22 129.86,85.57l-70.58 151.75 -116.5 0 -17.35 -37.3 0.04 -0.02 -54.36 -116.77zm129.96 279.24l-16.51 -35.61 33.06 0 -16.55 35.61zm-469.59 120.51c0,-56.02 34.24,-107.77 85.56,-129.86l151.77 70.57 0 116.51 -31.62 14.7 -0.01 -0.04 -122.48 57c-50.68,-22.64 -83.23,-72.83 -83.23,-128.88zm469.49 101.9l16.49 35.61 -33.06 0 16.57 -35.61zm510.48 35.06c30.46,-40.31 46.55,-88.39 46.55,-139.02 0,-50.03 -15.75,-97.64 -45.53,-137.67 -9.63,-12.93 -20.48,-24.76 -32.39,-35.32l56.54 -26.29 -37.75 -81.17 -245.29 114.09c-1.84,0.81 -3.63,1.64 -4.98,2.3l-106.96 49.76 0 0.28 -55.96 25.93 196.83 -423.19 -81.17 -37.76 -27.06 58.19c-10.57,-12.2 -22.39,-23.27 -35.27,-33.01 -40.31,-30.46 -88.39,-46.55 -139.02,-46.55 -50.04,0 -97.64,15.73 -137.68,45.52 -12.93,9.62 -24.76,20.47 -35.32,32.39l-26.29 -56.54 -81.17 37.76 114.08 245.27c0.81,1.84 1.64,3.61 2.31,5l49.75 106.96 0.28 0 31.07 67.06 -415.92 -193.45 -37.76 81.16 58.18 27.07c-12.2,10.56 -23.26,22.39 -33,35.27 -30.46,40.32 -46.56,88.38 -46.56,139.02 0,50.02 15.75,97.63 45.53,137.67 9.63,12.94 20.49,24.76 32.39,35.32l-56.54 26.29 37.75 81.18 245.29 -114.1c1.84,-0.81 3.63,-1.64 4.98,-2.3l106.97 -49.75 0 -0.28 48.79 -22.6 -187.59 403.33 81.17 37.75 27.06 -58.16c10.56,12.2 22.38,23.25 35.27,32.99 40.31,30.47 88.39,46.57 139.02,46.57 50.02,0 97.63,-15.76 137.67,-45.55 12.93,-9.61 24.76,-20.47 35.33,-32.38l26.28 56.54 81.17 -37.75 -114.08 -245.28c-0.82,-1.84 -1.65,-3.61 -2.32,-4.99l-49.74 -106.97 -0.29 0 -20.73 -44.73 403.52 187.68 37.76 -81.17 -58.18 -27.06c12.2,-10.56 23.27,-22.39 33.01,-35.27z"/>
   <path class="fil0" d="M1688.22 645.74l122.88 0 -231.38 -471.81 -141.5 0 -231.38 471.81 308.5 0 0 -83.51 -147.78 0 141.3 -306.9 179.36 390.41zm474.57 -471.81l-308.5 0 0 82.74 287.86 0c67.01,0 102.83,22.93 102.83,75.68 0,51.79 -35.83,77.39 -102.83,77.39l-287.86 0 0 236 115.59 0 0 -153.64 179.35 0c137.86,0 213.56,-52.74 213.56,-159.75 0,-95.17 -63.56,-158.42 -200,-158.42zm624.62 471.81l122.87 0 -231.38 -471.81 -141.49 0 -231.38 471.81 308.5 0 0 -83.51 -147.77 0 141.3 -306.9 179.36 390.41zm668.1 -104.53c0,-66.69 -18.63,-99.75 -78.55,-115.23 46.35,-14.14 91.3,-49.3 91.3,-118.67 0,-93.64 -73.49,-133.38 -205.68,-133.38l-309.11 0 0 471.81 114.98 0 0 -177.33 167.81 0c80.77,0 104.25,25.61 104.25,81.6 0,53.89 0,72.81 15.79,95.74l128.55 0c-14.98,-14.9 -29.35,-45.1 -29.35,-104.53zm-192.11 -152.31l-194.94 0 0 -132.23 189.88 0c67.81,0 92.11,22.93 92.11,62.11 0,37.07 -19.23,70.13 -87.05,70.13zm705.14 9.37l0 -2.68c54.25,-15.48 83.61,-45.1 83.61,-101.09 0,-94.4 -73.68,-120.58 -193.52,-120.58l-316.4 0 0 82.74 322.07 0c45.75,0 77.13,14.9 77.13,55.42 0,40.32 -27.94,55.99 -77.13,55.99l-322.07 0 0 277.66 301.42 0c155.67,0 227.73,-32.3 227.73,-139.5 0,-60.77 -37.04,-93.06 -102.83,-107.97zm-101.42 163.96l-209.32 0 0 -116.76 209.32 0c55.67,0 86.44,12.8 86.44,53.31 0,39.18 -20.65,63.45 -86.44,63.45zm530.24 -197.59c-87.86,-11.47 -170.65,-14.14 -170.65,-58.67 0,-32.29 24.29,-58.67 127.13,-58.67 92.11,0 133.6,30.39 137.86,64.02l111.34 0c-2.83,-83.51 -71.46,-146.95 -247.78,-146.95 -183.6,0 -239.28,71.47 -239.28,149.05 0,74.15 42.92,113.13 179.36,134.72 136.24,21.59 213.36,17.01 213.36,65.55 0,35.73 -39.88,59.24 -134.82,59.24 -90.69,0 -150.82,-25.03 -153.64,-74.15l-119.84 0c0,95.74 90.69,157.08 263.36,157.08 177.94,0 267.21,-54.65 267.21,-157.08 0,-105.1 -95.75,-116 -233.6,-134.15z"/>
   <path class="fil0" d="M1480.97 882.6c19.21,0 33.79,-12.8 33.79,-29.86 0,-18.21 -13.26,-26.35 -29.57,-30.6 -11.65,-2.9 -18.79,-7.73 -18.79,-15.58 0,-7.14 6.24,-12.39 14.25,-12.39 8.47,0 14.87,5.99 14.87,14l17.8 0c0,-16.94 -14,-29.61 -32.51,-29.61 -18.38,0 -32.22,12.39 -32.22,28.58 0,17.64 12.68,26.52 28.3,30.44 11.77,2.93 20.12,7.73 20.12,16.31 0,7.44 -6.86,13.14 -15.74,13.14 -9.33,0 -16.48,-6.57 -16.48,-15.33l-17.76 0c0,17.64 14.7,30.9 33.95,30.9zm156.18 0c30.15,0 52.91,-22.43 52.91,-52 0,-29.57 -22.76,-52.04 -52.91,-52.04 -30.03,0 -52.87,22.47 -52.87,52.04 0,29.57 22.84,52 52.87,52zm0 -16.73c-19.83,0 -34.94,-15.16 -34.94,-35.27 0,-20.12 15.11,-35.28 34.94,-35.28 19.95,0 35.11,15.16 35.11,35.28 0,20.11 -15.16,35.27 -35.11,35.27zm145.11 -1.32l0 -84.22 -17.31 0 0 100.54 53.04 0 0 -16.31 -35.73 0zm142.68 18.05c23.59,0 41.35,-17.3 41.35,-40.47l0 -61.8 -17.31 0 0 61.5c0,13.68 -10.2,24.04 -24.04,24.04 -13.71,0 -24.08,-10.36 -24.08,-24.04l0 -61.5 -17.18 0 0 61.8c0,23.17 17.8,40.47 41.26,40.47zm167.13 -16.73c-19.83,0 -34.94,-15.16 -34.94,-35.27 0,-20.12 15.11,-35.28 34.94,-35.28 15.61,0 28.42,9.34 33.08,23.05l18.51 0c-5.41,-23.33 -25.78,-39.81 -51.59,-39.81 -30.03,0 -52.87,22.47 -52.87,52.04 0,27.67 19.95,49.11 47.21,51.71l-7.6 9.5 9.17 4.22c0.9,-1.04 2.64,-2.03 4.67,-2.03 3.51,0 6.44,2.6 6.44,6.24 0,3.51 -2.93,6.28 -6.44,6.28 -3.34,0 -6.4,-2.77 -6.4,-6.28l-9.92 0c0,8.59 7.02,15.33 16.31,15.33 9.33,0 16.31,-6.74 16.31,-15.33 0,-8.14 -5.82,-14.42 -13.84,-14.71l2.64 -3.22c23.17,-2.19 40.94,-17.92 45.89,-39.49l-18.51 0c-4.67,13.71 -17.47,23.05 -33.08,23.05zm183.32 -95.33c10.16,0 15.74,-8.14 15.74,-19.21l-11.53 0c0,3.63 -2.77,6.4 -6.28,6.4 -5.66,0 -8.88,-6.86 -17.35,-6.86 -10.2,0 -15.86,8.47 -15.86,19.25l11.65 0c0,-3.51 2.48,-6.27 6.12,-6.27 5.53,0 8.75,6.69 17.51,6.69zm-9.79 112.06c30.16,0 52.91,-22.43 52.91,-52 0,-29.57 -22.76,-52.04 -52.91,-52.04 -30.03,0 -52.87,22.47 -52.87,52.04 0,29.57 22.84,52 52.87,52zm0 -16.73c-19.83,0 -34.94,-15.16 -34.94,-35.27 0,-20.12 15.12,-35.28 34.94,-35.28 19.96,0 35.11,15.16 35.11,35.28 0,20.11 -15.15,35.27 -35.11,35.27zm145.11 -1.32l0 -26.11 34.53 0 0 -16.31 -34.53 0 0 -25.49 39.37 0 0 -16.31 -56.67 0 0 100.54 57.41 0 0 -16.31 -40.11 0zm143.42 18.05c19.21,0 33.79,-12.8 33.79,-29.86 0,-18.21 -13.25,-26.35 -29.57,-30.6 -11.65,-2.9 -18.79,-7.73 -18.79,-15.58 0,-7.14 6.24,-12.39 14.25,-12.39 8.47,0 14.87,5.99 14.87,14l17.8 0c0,-16.94 -14,-29.61 -32.51,-29.61 -18.38,0 -32.22,12.39 -32.22,28.58 0,17.64 12.68,26.52 28.3,30.44 11.77,2.93 20.12,7.73 20.12,16.31 0,7.44 -6.86,13.14 -15.74,13.14 -9.33,0 -16.48,-6.57 -16.48,-15.33l-17.76 0c0,17.64 14.7,30.9 33.95,30.9zm273.2 -1.73l19.09 0 -39.61 -100.54 -20.57 0 -39.61 100.54 18.63 0 8.18 -21.44 45.77 0 8.13 21.44zm-47.79 -37.46l16.77 -44.16 16.77 44.16 -33.54 0zm170.94 39.2c23.59,0 41.34,-17.3 41.34,-40.47l0 -61.8 -17.3 0 0 61.5c0,13.68 -10.2,24.04 -24.04,24.04 -13.72,0 -24.08,-10.36 -24.08,-24.04l0 -61.5 -17.18 0 0 61.8c0,23.17 17.8,40.47 41.26,40.47zm184.19 -102.27l-71.7 0 0 16.31 27.26 0 0 84.22 17.35 0 0 -84.22 27.1 0 0 -16.31zm113.21 102.27c30.16,0 52.91,-22.43 52.91,-52 0,-29.57 -22.76,-52.04 -52.91,-52.04 -30.03,0 -52.87,22.47 -52.87,52.04 0,29.57 22.84,52 52.87,52zm0 -16.73c-19.83,0 -34.94,-15.16 -34.94,-35.27 0,-20.12 15.12,-35.28 34.94,-35.28 19.95,0 35.11,15.16 35.11,35.28 0,20.11 -15.16,35.27 -35.11,35.27zm214.63 -85.54l-32.05 73.85 -32.22 -73.85 -22.55 0 0 100.54 17.31 0 0 -71.13 31.06 71.13 12.22 0 31.19 -71.41 0 71.41 17.35 0 0 -100.54 -22.31 0zm150.07 102.27c30.16,0 52.91,-22.43 52.91,-52 0,-29.57 -22.76,-52.04 -52.91,-52.04 -30.03,0 -52.87,22.47 -52.87,52.04 0,29.57 22.84,52 52.87,52zm0 -16.73c-19.83,0 -34.94,-15.16 -34.94,-35.27 0,-20.12 15.12,-35.28 34.94,-35.28 19.96,0 35.11,15.16 35.11,35.28 0,20.11 -15.15,35.27 -35.11,35.27zm184.9 -85.54l-71.7 0 0 16.31 27.26 0 0 84.22 17.35 0 0 -84.22 27.09 0 0 -16.31zm112.64 16.31l0 -16.31 -43.41 0 0 16.31 12.97 0 0 67.91 -12.97 0 0 16.31 43.41 0 0 -16.31 -13.1 0 0 -67.91 13.1 0zm145.73 -16.31l-30.32 77.65 -30.32 -77.65 -19.53 0 40.68 100.54 17.93 0 40.48 -100.54 -18.92 0zm149.19 100.54l19.08 0 -39.61 -100.54 -20.57 0 -39.61 100.54 18.63 0 8.18 -21.44 45.77 0 8.13 21.44zm-47.79 -37.46l16.77 -44.16 16.77 44.16 -33.54 0zm164.24 39.2c19.21,0 33.79,-12.8 33.79,-29.86 0,-18.21 -13.25,-26.35 -29.57,-30.6 -11.65,-2.9 -18.79,-7.73 -18.79,-15.58 0,-7.14 6.24,-12.39 14.25,-12.39 8.47,0 14.87,5.99 14.87,14l17.8 0c0,-16.94 -14,-29.61 -32.51,-29.61 -18.38,0 -32.22,12.39 -32.22,28.58 0,17.64 12.68,26.52 28.3,30.44 11.77,2.93 20.12,7.73 20.12,16.31 0,7.44 -6.86,13.14 -15.74,13.14 -9.33,0 -16.48,-6.57 -16.48,-15.33l-17.76 0c0,17.64 14.7,30.9 33.95,30.9z"/>
  </g>
 </g>
</svg>
