<?xml version="1.0" encoding="UTF-8"?>
<!DOCTYPE svg PUBLIC "-//W3C//DTD SVG 1.1//EN" "http://www.w3.org/Graphics/SVG/1.1/DTD/svg11.dtd">
<!-- Creator: CorelDRAW 2021 (64 Bit) -->
<svg xmlns="http://www.w3.org/2000/svg" xml:space="preserve" width="104.429mm" height="25.4mm" version="1.1" style="shape-rendering:geometricPrecision; text-rendering:geometricPrecision; image-rendering:optimizeQuality; fill-rule:evenodd; clip-rule:evenodd"
viewBox="0 0 5671.79 1379.53"
 xmlns:xlink="http://www.w3.org/1999/xlink"
 xmlns:xodm="http://www.corel.com/coreldraw/odm/2003">
 <defs>
  <style type="text/css">
   <![CDATA[
    .fil0 {fill:white;fill-rule:nonzero}
   ]]>
  </style>
 </defs>
 <g id="Camada_x0020_1">
  <metadata id="CorelCorpID_0Corel-Layer"/>
  <g id="_2220369137184">
   <path class="fil0" d="M509.96 679.54l43.62 20.31 -43.62 20.19 0 -40.5zm346.97 40.7l-43.62 -20.3 43.62 -20.18 0 40.48zm400.29 -21.61c0,68.61 -41.92,131.97 -104.78,159.06l-185.87 -86.45 0 -142.69 38.42 -17.85 0.01 0.04 150.29 -69.96c62.07,27.74 101.92,89.22 101.92,157.85zm-413.39 469.33c-27.74,62.06 -89.22,101.93 -157.85,101.93 -68.62,0 -131.98,-41.94 -159.05,-104.8l86.44 -185.87 142.68 0 20.87 44.87 -0.04 0.02 66.95 143.84zm-318.23 -956.39c27.74,-62.07 89.2,-101.92 157.85,-101.92 68.62,0 131.97,41.91 159.04,104.8l-86.44 185.85 -142.68 0 -21.25 -45.69 0.05 -0.03 -66.58 -143.01zm159.17 341.99l-20.22 -43.62 40.49 0 -20.27 43.62zm-575.12 147.6c0,-68.61 41.94,-131.99 104.79,-159.05l185.88 86.43 0 142.69 -38.72 18 -0.01 -0.05 -150.01 69.81c-62.07,-27.73 -101.93,-89.2 -101.93,-157.85zm575.01 124.8l20.2 43.62 -40.49 0 20.29 -43.62zm625.21 42.94c37.3,-49.38 57.01,-108.26 57.01,-170.27 0,-61.28 -19.29,-119.58 -55.76,-168.61 -11.79,-15.83 -25.08,-30.33 -39.67,-43.26l69.24 -32.2 -46.23 -99.41 -300.42 139.73c-2.26,0.99 -4.44,2.01 -6.1,2.82l-131 60.94 0 0.34 -68.54 31.76 241.07 -518.3 -99.42 -46.25 -33.14 71.26c-12.94,-14.94 -27.42,-28.5 -43.19,-40.43 -49.38,-37.3 -108.25,-57.01 -170.26,-57.01 -61.28,0 -119.59,19.27 -168.62,55.75 -15.83,11.79 -30.33,25.08 -43.26,39.66l-32.2 -69.24 -99.42 46.25 139.72 300.39c0.99,2.25 2.01,4.43 2.84,6.13l60.93 131 0.34 0 38.06 82.13 -509.4 -236.93 -46.25 99.4 71.25 33.15c-14.94,12.93 -28.49,27.42 -40.41,43.19 -37.31,49.39 -57.02,108.24 -57.02,170.27 0,61.26 19.29,119.57 55.76,168.61 11.79,15.84 25.09,30.33 39.66,43.26l-69.24 32.2 46.24 99.42 300.42 -139.74c2.25,-0.99 4.45,-2 6.1,-2.82l131.01 -60.93 0 -0.35 59.75 -27.68 -229.75 493.98 99.41 46.23 33.15 -71.24c12.93,14.94 27.41,28.48 43.2,40.4 49.37,37.32 108.25,57.03 170.26,57.03 61.26,0 119.57,-19.3 168.61,-55.79 15.83,-11.76 30.33,-25.07 43.27,-39.65l32.19 69.24 99.42 -46.23 -139.72 -300.41c-1,-2.25 -2.02,-4.43 -2.85,-6.12l-60.92 -131.01 -0.35 0 -25.39 -54.78 494.2 229.86 46.25 -99.41 -71.25 -33.15c14.94,-12.93 28.5,-27.42 40.43,-43.19z"/>
   <path class="fil0" d="M2067.64 944.48l150.49 0 -283.38 -577.86 -173.31 0 -283.38 577.86 377.84 0 0 -102.28 -180.99 0 173.06 -375.87 219.66 478.15zm581.23 -577.86l-377.85 0 0 101.34 352.56 0c82.06,0 125.94,28.08 125.94,92.68 0,63.43 -43.88,94.79 -125.94,94.79l-352.56 0 0 289.04 141.57 0 0 -188.18 219.67 0c168.84,0 261.56,-64.59 261.56,-195.66 0,-116.55 -77.85,-194.02 -244.95,-194.02zm765.01 577.86l150.49 0 -283.38 -577.86 -173.31 0 -283.38 577.86 377.85 0 0 -102.28 -180.99 0 173.05 -375.87 219.67 478.15zm818.25 -128.03c0,-81.68 -22.81,-122.16 -96.2,-141.13 56.77,-17.32 111.81,-60.38 111.81,-145.35 0,-114.68 -90,-163.36 -251.89,-163.36l-378.59 0 0 577.86 140.82 0 0 -217.2 205.54 0c98.92,0 127.68,31.36 127.68,99.94 0,66 0,89.17 19.34,117.25l157.43 0c-18.35,-18.25 -35.94,-55.24 -35.94,-128.03zm-235.29 -186.53l-238.75 0 0 -161.96 232.56 0c83.05,0 112.81,28.08 112.81,76.06 0,45.41 -23.56,85.9 -106.62,85.9zm863.63 11.47l0 -3.28c66.44,-18.96 102.39,-55.24 102.39,-123.81 0,-115.61 -90.24,-147.68 -237.01,-147.68l-387.51 0 0 101.34 394.45 0c56.03,0 94.46,18.25 94.46,67.87 0,49.38 -34.21,68.57 -94.46,68.57l-394.45 0 0 340.07 369.17 0c190.65,0 278.92,-39.55 278.92,-170.86 0,-74.42 -45.38,-113.97 -125.95,-132.23zm-124.21 200.81l-256.36 0 0 -143 256.36 0c68.18,0 105.87,15.68 105.87,65.3 0,47.98 -25.29,77.7 -105.87,77.7zm649.41 -242.01c-107.6,-14.04 -209,-17.32 -209,-71.85 0,-39.56 29.75,-71.86 155.7,-71.86 112.81,0 163.63,37.21 168.84,78.41l136.36 0c-3.47,-102.28 -87.51,-179.98 -303.46,-179.98 -224.87,0 -293.05,87.54 -293.05,182.56 0,90.8 52.55,138.55 219.66,165 166.86,26.44 261.32,20.83 261.32,80.27 0,43.77 -48.84,72.56 -165.13,72.56 -111.07,0 -184.7,-30.66 -188.18,-90.81l-146.77 0c0,117.25 111.07,192.39 322.56,192.39 217.93,0 327.26,-66.93 327.26,-192.39 0,-128.73 -117.27,-142.06 -286.11,-164.3z"/>
  </g>
 </g>
</svg>
