<?xml version="1.0" encoding="UTF-8"?>
<!DOCTYPE svg PUBLIC "-//W3C//DTD SVG 1.1//EN" "http://www.w3.org/Graphics/SVG/1.1/DTD/svg11.dtd">
<!-- Creator: CorelDRAW 2021 (64 Bit) -->
<svg xmlns="http://www.w3.org/2000/svg" xml:space="preserve" width="67.177mm" height="67.7333mm" version="1.1" style="shape-rendering:geometricPrecision; text-rendering:geometricPrecision; image-rendering:optimizeQuality; fill-rule:evenodd; clip-rule:evenodd"
viewBox="0 0 850.51 857.55"
 xmlns:xlink="http://www.w3.org/1999/xlink"
 xmlns:xodm="http://www.corel.com/coreldraw/odm/2003">
 <defs>
  <style type="text/css">
   <![CDATA[
    .fil1 {fill:white;fill-rule:nonzero}
    .fil0 {fill:white;fill-rule:nonzero}
   ]]>
  </style>
 </defs>
 <g id="Camada_x0020_1">
  <metadata id="CorelCorpID_0Corel-Layer"/>
  <g id="_2218935221200">
   <path class="fil0" d="M348.63 438.42l19.04 8.85 -19.04 8.82 0 -17.67zm151.44 17.76l-19.04 -8.86 19.04 -8.82 0 17.67zm174.71 -9.43c0,29.94 -18.3,57.6 -45.74,69.42l-81.12 -37.73 0 -62.27 16.77 -7.8 0.01 0.02 65.59 -30.53c27.09,12.1 44.49,38.93 44.49,68.89zm-180.43 204.84c-12.1,27.09 -38.94,44.49 -68.9,44.49 -29.95,0 -57.6,-18.3 -69.42,-45.74l37.73 -81.12 62.28 0 9.11 19.58 -0.02 0.01 29.22 62.78zm-138.89 -417.42c12.1,-27.09 38.94,-44.49 68.89,-44.49 29.95,0 57.6,18.3 69.42,45.74l-37.73 81.12 -62.28 0 -9.27 -19.94 0.02 -0.02 -29.06 -62.41zm69.47 149.26l-8.82 -19.04 17.67 0 -8.85 19.04zm-251.01 64.42c0,-29.95 18.3,-57.6 45.74,-69.42l81.12 37.73 0 62.27 -16.9 7.86 -0.01 -0.02 -65.47 30.47c-27.09,-12.1 -44.49,-38.93 -44.49,-68.89zm250.96 54.48l8.82 19.04 -17.67 0 8.85 -19.04zm272.87 18.74c16.28,-21.55 24.89,-47.25 24.89,-74.31 0,-26.75 -8.42,-52.19 -24.34,-73.59 -5.14,-6.91 -10.94,-13.24 -17.31,-18.88l30.22 -14.05 -20.18 -43.39 -131.12 60.99c-0.98,0.44 -1.94,0.88 -2.66,1.24l-57.18 26.59 0 0.15 -29.91 13.86 105.21 -226.22 -43.39 -20.18 -14.47 31.1c-5.65,-6.52 -11.97,-12.44 -18.86,-17.64 -21.55,-16.28 -47.24,-24.89 -74.31,-24.89 -26.75,0 -52.19,8.42 -73.59,24.34 -6.91,5.14 -13.24,10.94 -18.88,17.31l-14.05 -30.22 -43.39 20.18 60.98 131.11c0.44,0.98 0.88,1.93 1.24,2.67l26.59 57.17 0.15 0 16.61 35.85 -222.33 -103.41 -20.19 43.39 31.1 14.47c-6.52,5.64 -12.43,11.96 -17.64,18.86 -16.28,21.55 -24.89,47.24 -24.89,74.31 0,26.74 8.42,52.19 24.34,73.6 5.14,6.91 10.95,13.24 17.31,18.88l-30.22 14.06 20.18 43.39 131.12 -60.99c0.98,-0.43 1.94,-0.88 2.66,-1.24l57.18 -26.59 0 -0.15 26.08 -12.09 -100.28 215.6 43.39 20.18 14.47 -31.1c5.65,6.52 11.96,12.43 18.85,17.64 21.55,16.28 47.25,24.89 74.32,24.89 26.74,0 52.19,-8.42 73.59,-24.34 6.91,-5.14 13.24,-10.94 18.88,-17.31l14.05 30.22 43.39 -20.18 -60.98 -131.11c-0.43,-0.98 -0.88,-1.92 -1.24,-2.67l-26.6 -57.18 -0.15 0 -11.08 -23.92 215.7 100.33 20.18 -43.39 -31.1 -14.47c6.52,-5.65 12.44,-11.97 17.64,-18.85z"/>
   <path class="fil1" d="M611.67 90.01c4.75,2.6 9.93,1.55 12.08,-2.38 2.19,-4.01 0.4,-7.87 -3.75,-11.56 -3.41,-3.04 -4.47,-5.85 -3.05,-8.44 1.41,-2.58 4.78,-3.24 7.82,-1.58 3.09,1.69 4.23,5.1 2.68,7.94l2.43 1.33c2.19,-4 0.5,-8.86 -3.99,-11.31 -4.47,-2.45 -9.4,-1.4 -11.46,2.35 -2.09,3.82 -0.54,7.69 3.39,11.12 3.6,3.2 4.93,6.2 3.44,8.93 -1.49,2.72 -5.12,3.39 -8.43,1.58 -3.32,-1.82 -4.65,-5.52 -3.01,-8.51l-2.43 -1.33c-2.27,4.15 -0.42,9.28 4.29,11.85z"/>
   <path class="fil1" d="M687.65 144.22c6.67,6.08 16,5.94 21.67,-0.29 5.67,-6.23 4.95,-15.54 -1.72,-21.62 -6.62,-6.03 -15.97,-5.89 -21.64,0.33 -5.67,6.23 -4.93,15.54 1.69,21.57zm1.67 -1.84c-5.45,-4.97 -6.07,-12.66 -1.32,-17.87 4.75,-5.22 12.47,-5.32 17.92,-0.35 5.5,5.01 6.08,12.66 1.32,17.88 -4.75,5.22 -12.43,5.35 -17.93,0.34z"/>
   <polygon class="fil1" points="748.52,209.26 770.19,194.5 768.68,192.28 745.02,208.4 753.65,221.08 755.64,219.72 "/>
   <path class="fil1" d="M789.34 291.71c2.53,6.42 9.01,9.54 15.08,7.15l16.49 -6.49 -0.99 -2.53 -16.49 6.49c-4.72,1.86 -9.79,-0.5 -11.77,-5.53 -1.99,-5.07 0.11,-10.25 4.83,-12.11l16.49 -6.49 -1 -2.54 -16.49 6.49c-6.06,2.39 -8.68,9.1 -6.14,15.55z"/>
   <path class="fil1" d="M815.89 385.49c-0.93,-7.32 3.58,-13.57 10.58,-14.47 7,-0.89 12.94,4.03 13.87,11.35 0.76,5.93 -2.01,11.07 -6.7,13.35l0.37 2.88c6.07,-2.6 9.76,-9.09 8.81,-16.55 -1.13,-8.89 -8.34,-14.84 -16.7,-13.77 -8.03,1.02 -13.41,8.04 -12.79,16.48l-2.67 -1.61 -0.47 1.55c0.37,0.32 0.75,0.94 0.83,1.54 0.17,1.35 -0.65,2.52 -1.97,2.69 -1.27,0.16 -2.4,-0.76 -2.57,-2.11 -0.17,-1.31 0.69,-2.53 1.96,-2.69l-0.21 -1.66c-2.05,0.26 -3.48,2.22 -3.18,4.53 0.29,2.31 2.17,3.89 4.22,3.63 2.06,-0.26 3.46,-2.09 3.19,-4.23 -0.02,-0.17 -0.05,-0.4 -0.11,-0.56l1.19 0.78c1.23,7.03 6.3,12.05 12.57,12.98l-0.37 -2.88c-5.1,-1.03 -9.09,-5.31 -9.84,-11.25z"/>
   <path class="fil1" d="M845.24 491.93c-0.31,2.49 1.3,4.32 3.77,4.63l0.24 -1.92c-1.36,-0.17 -2.22,-1.33 -2.04,-2.73 0.27,-2.19 2.92,-2.7 3.27,-5.49 0.3,-2.44 -1.34,-4.29 -3.77,-4.59l-0.23 1.88c1.31,0.16 2.22,1.34 2.04,2.78 -0.27,2.19 -2.93,2.7 -3.27,5.44zm-31.87 -7.03c-1.12,8.95 4.38,16.49 12.74,17.54 8.36,1.04 15.55,-4.92 16.67,-13.87 1.11,-8.89 -4.4,-16.45 -12.76,-17.49 -8.36,-1.04 -15.54,4.93 -16.65,13.82zm2.46 0.31c0.91,-7.32 6.84,-12.26 13.84,-11.39 7.01,0.87 11.54,7.11 10.62,14.43 -0.92,7.38 -6.84,12.27 -13.84,11.4 -7,-0.87 -11.54,-7.06 -10.62,-14.45z"/>
   <polygon class="fil1" points="795.26,572.04 805.34,575.87 800.98,587.38 803.22,588.23 807.59,576.72 817.53,580.49 812.65,593.36 814.89,594.21 820.73,578.84 793.95,568.68 788.04,584.26 790.3,585.12 "/>
   <path class="fil1" d="M751.25 652.71c-2.99,4.51 -2.39,9.76 1.35,12.24 3.81,2.52 7.81,1.06 11.83,-2.76 3.32,-3.14 6.21,-3.96 8.67,-2.33 2.45,1.62 2.83,5.04 0.91,7.93 -1.95,2.94 -5.44,3.78 -8.14,2l-1.53 2.31c3.8,2.52 8.78,1.24 11.61,-3.01 2.81,-4.25 2.19,-9.25 -1.38,-11.62 -3.63,-2.4 -7.62,-1.19 -11.37,2.44 -3.5,3.32 -6.59,4.39 -9.19,2.67 -2.59,-1.72 -2.95,-5.39 -0.86,-8.54 2.09,-3.16 5.89,-4.17 8.74,-2.28l1.53 -2.31c-3.94,-2.61 -9.21,-1.2 -12.17,3.27z"/>
   <path class="fil1" d="M623.23 775.13l-2.56 1.61 26.09 17.4 2.75 -1.74 -4.45 -31.05 -2.5 1.57 1.25 8.49 -13.46 8.49 -7.13 -4.78zm20.95 -1.14l2.52 16.95 -14.23 -9.56 11.71 -7.38z"/>
   <path class="fil1" d="M548.6 808.64c-6.54,2.21 -9.97,8.54 -7.88,14.71l5.67 16.78 2.58 -0.87 -5.67 -16.79c-1.62,-4.8 0.98,-9.76 6.1,-11.49 5.16,-1.74 10.23,0.62 11.86,5.42l5.67 16.78 2.59 -0.87 -5.67 -16.78c-2.09,-6.17 -8.66,-9.12 -15.23,-6.9z"/>
   <polygon class="fil1" points="451.44,857.55 472.54,855.61 472.32,853.22 463.12,854.07 460.71,827.94 458.01,828.19 460.42,854.31 451.22,855.16 "/>
   <path class="fil1" d="M368.15 825.37c-8.95,-1.12 -16.5,4.38 -17.54,12.74 -1.04,8.36 4.92,15.55 13.87,16.66 8.89,1.11 16.45,-4.4 17.49,-12.76 1.04,-8.36 -4.93,-15.54 -13.83,-16.65zm-0.31 2.46c7.32,0.91 12.26,6.84 11.39,13.84 -0.87,7 -7.11,11.54 -14.43,10.62 -7.38,-0.92 -12.27,-6.84 -11.4,-13.84 0.87,-7 7.06,-11.54 14.45,-10.62z"/>
   <polygon class="fil1" points="247.83,820.7 268.69,802.35 270.22,830.09 273.54,831.48 284.61,805.08 282.14,804.04 272.66,826.66 271.11,799.41 269.12,798.58 248.62,816.58 258.1,793.96 255.63,792.92 244.56,819.33 "/>
   <path class="fil1" d="M182.75 747.6c-7.15,-5.51 -16.43,-4.6 -21.58,2.07 -5.14,6.67 -3.66,15.89 3.49,21.4 7.1,5.47 16.4,4.56 21.54,-2.11 5.14,-6.67 3.65,-15.89 -3.45,-21.36zm-1.52 1.97c5.84,4.5 7.09,12.12 2.78,17.71 -4.31,5.59 -11.99,6.32 -17.83,1.82 -5.89,-4.54 -7.1,-12.13 -2.79,-17.71 4.31,-5.59 11.95,-6.36 17.84,-1.81z"/>
   <polygon class="fil1" points="88.06,693.98 101.42,710.42 103.29,708.91 97.46,701.74 117.82,685.2 116.11,683.09 95.75,699.63 89.93,692.47 "/>
   <polygon class="fil1" points="45.21,620.45 43.07,621.54 48.14,631.54 50.28,630.46 48.35,626.66 69.6,615.88 71.53,619.68 73.68,618.59 68.6,608.58 66.45,609.67 68.38,613.48 47.14,624.25 "/>
   <polygon class="fil1" points="10.03,528.13 37.42,532.81 15.55,549.95 16.31,552.93 40.92,533.47 40.21,530.65 9.3,525.23 "/>
   <path class="fil1" d="M28.49 430.31l-0.04 -3.03 -28.44 13.2 0.05 3.25 28.82 12.38 -0.04 -2.95 -7.9 -3.35 -0.23 -15.91 7.8 -3.59zm-9.94 18.48l-15.78 -6.68 15.58 -7.17 0.2 13.84z"/>
   <path class="fil1" d="M38.18 351.62c1.15,-5.29 -1.32,-9.97 -5.7,-10.92 -4.46,-0.97 -7.66,1.84 -10.02,6.87 -1.95,4.13 -4.35,5.94 -7.23,5.32 -2.87,-0.62 -4.46,-3.67 -3.73,-7.06 0.75,-3.45 3.7,-5.5 6.86,-4.81l0.59 -2.7c-4.46,-0.97 -8.64,2.03 -9.72,7.02 -1.08,4.98 1.31,9.42 5.5,10.32 4.25,0.92 7.53,-1.65 9.71,-6.4 2.05,-4.36 4.55,-6.48 7.6,-5.82 3.03,0.66 4.7,3.95 3.9,7.64 -0.8,3.7 -3.98,6.02 -7.31,5.3l-0.59 2.7c4.62,1 9.02,-2.22 10.15,-7.46z"/>
   <path class="fil1" d="M107.39 198.76l6.31 -8.92 -43.8 -10.51 -6.79 9.61 24.56 37.74 6.16 -8.71 -4.4 -6.5 10.37 -14.68 7.59 1.98zm-23.19 5.08l-9.3 -13.64 15.97 4.2 -6.67 9.44z"/>
   <path class="fil1" d="M129.4 113.02l-12.06 11.06 28.28 30.84 7.34 -6.73 -9.02 -9.83 4.72 -4.33c6.54,-5.99 7.32,-15.02 1.83,-21.01 -5.49,-5.99 -14.56,-5.98 -21.09,0.01zm13.09 14.65l-4.54 4.16 -7.3 -7.96 4.54 -4.16c2.38,-2.18 5.68,-2.08 7.77,0.2 2.04,2.23 1.9,5.58 -0.47,7.76z"/>
   <path class="fil1" d="M229.92 91.58l9.36 -5.63 -35.87 -27.26 -10.08 6.06 7.29 44.43 9.14 -5.5 -1.41 -7.72 15.4 -9.26 6.15 4.87zm-23.27 -4.68l-3.02 -16.23 12.93 10.28 -9.91 5.96z"/>
   <path class="fil1" d="M302.13 60.16l11.31 -3.84 -13.79 -12.04c3.87,-3.62 5.43,-8.81 3.7,-13.92 -2.57,-7.59 -10.76,-11.14 -19.11,-8.31l-15.02 5.1 13.44 39.62 9.43 -3.2 -4.6 -13.56 2.84 -0.97 11.79 11.12zm-20.63 -27.83l5.41 -1.84c2.91,-0.99 5.82,0.38 6.8,3.26 0.96,2.82 -0.52,5.68 -3.43,6.66l-5.41 1.84 -3.37 -9.93z"/>
   <path class="fil1" d="M381.5 20.95c2.6,-1.97 4.16,-5.64 3.7,-9.38 -0.77,-6.19 -6.49,-10 -13.12,-9.18l-17.27 2.14 5.15 41.52 18.87 -2.34c7.14,-0.88 11.85,-6.23 11.04,-12.8 -0.61,-4.93 -4.08,-8.97 -8.35,-9.96zm-10.8 -9.83c2.3,-0.28 4.28,1.11 4.57,3.4 0.28,2.24 -1.38,4.14 -3.6,4.41l-5.29 0.66 -0.97 -7.81 5.29 -0.66zm4.65 24.47l-6.88 0.85 -1.11 -8.97 6.88 -0.85c2.68,-0.33 4.96,1.41 5.28,3.94 0.31,2.52 -1.49,4.7 -4.17,5.04z"/>
   <path class="fil1" d="M452.99 43.24c8.91,0.69 15.99,-4.34 16.57,-11.73 0.64,-8.21 -5.51,-11.79 -12.12,-14.01 -4.2,-1.43 -7.03,-3.1 -6.82,-5.75 0.16,-2.13 2.27,-3.55 4.95,-3.34 2.81,0.22 4.72,2.26 4.53,4.73l10.18 0.79c0.56,-7.25 -5.42,-13.2 -14.06,-13.87 -8.46,-0.66 -15.26,4.17 -15.81,11.25 -0.62,7.92 5.24,12.01 11.53,14.03 4.08,1.35 7.61,3.14 7.39,5.99 -0.17,2.23 -2.54,3.8 -5.56,3.57 -3.14,-0.24 -5.4,-2.61 -5.19,-5.32l-10.18 -0.79c-0.59,7.56 5.7,13.75 14.6,14.45z"/>
  </g>
 </g>
</svg>
