<?xml version="1.0" encoding="UTF-8"?>
<!DOCTYPE svg PUBLIC "-//W3C//DTD SVG 1.1//EN" "http://www.w3.org/Graphics/SVG/1.1/DTD/svg11.dtd">
<!-- Creator: CorelDRAW 2021 (64 Bit) -->
<svg xmlns="http://www.w3.org/2000/svg" xml:space="preserve" width="64.6822mm" height="42.3333mm" version="1.1" style="shape-rendering:geometricPrecision; text-rendering:geometricPrecision; image-rendering:optimizeQuality; fill-rule:evenodd; clip-rule:evenodd"
viewBox="0 0 1759.51 1151.57"
 xmlns:xlink="http://www.w3.org/1999/xlink"
 xmlns:xodm="http://www.corel.com/coreldraw/odm/2003">
 <defs>
  <style type="text/css">
   <![CDATA[
    .fil0 {fill:white;fill-rule:nonzero}
   ]]>
  </style>
 </defs>
 <g id="Camada_x0020_1">
  <metadata id="CorelCorpID_0Corel-Layer"/>
  <g id="_2218935279232">
   <path class="fil0" d="M799.47 331.12l21.25 9.89 -21.25 9.84 0 -19.73zm169.07 19.83l-21.25 -9.89 21.25 -9.84 0 19.72zm195.06 -10.53c0,33.44 -20.43,64.31 -51.06,77.51l-90.57 -42.12 0 -69.53 18.72 -8.7 0.01 0.02 73.23 -34.08c30.25,13.51 49.67,43.46 49.67,76.91zm-201.45 228.69c-13.51,30.24 -43.47,49.67 -76.91,49.67 -33.44,0 -64.31,-20.43 -77.5,-51.06l42.12 -90.57 69.53 0 10.17 21.86 -0.02 0.01 32.62 70.09zm-155.06 -466.01c13.51,-30.25 43.46,-49.67 76.91,-49.67 33.43,0 64.3,20.43 77.5,51.06l-42.12 90.57 -69.53 0 -10.35 -22.27 0.02 -0.01 -32.43 -69.68zm77.55 166.63l-9.84 -21.26 19.72 0 -9.88 21.26zm-280.24 71.92c0,-33.44 20.44,-64.31 51.07,-77.5l90.57 42.12 0 69.53 -18.87 8.77 -0.01 -0.02 -73.09 34.02c-30.24,-13.51 -49.67,-43.47 -49.67,-76.91zm280.19 60.82l9.84 21.25 -19.73 0 9.88 -21.25zm304.65 20.91c18.17,-24.05 27.79,-52.74 27.79,-82.96 0,-29.86 -9.4,-58.27 -27.18,-82.16 -5.75,-7.71 -12.22,-14.78 -19.33,-21.08l33.74 -15.69 -22.53 -48.44 -146.39 68.08c-1.09,0.49 -2.17,0.98 -2.97,1.38l-63.83 29.69 0 0.17 -33.4 15.48 117.47 -252.56 -48.45 -22.53 -16.15 34.72c-6.29,-7.28 -13.35,-13.88 -21.05,-19.7 -24.05,-18.18 -52.74,-27.78 -82.96,-27.78 -29.87,0 -58.27,9.39 -82.17,27.17 -7.71,5.74 -14.78,12.22 -21.08,19.33l-15.69 -33.74 -48.44 22.53 68.09 146.37c0.48,1.1 0.98,2.16 1.39,2.99l29.68 63.83 0.18 0 18.54 40.03 -248.22 -115.45 -22.54 48.44 34.72 16.16c-7.28,6.3 -13.88,13.35 -19.69,21.04 -18.17,24.06 -27.79,52.74 -27.79,82.96 0,29.85 9.4,58.26 27.18,82.16 5.75,7.71 12.22,14.78 19.33,21.08l-33.74 15.69 22.53 48.44 146.39 -68.09c1.1,-0.48 2.17,-0.98 2.98,-1.38l63.83 -29.69 0 -0.17 29.12 -13.49 -111.95 240.7 48.44 22.53 16.15 -34.71c6.3,7.28 13.36,13.88 21.05,19.69 24.06,18.18 52.74,27.78 82.96,27.78 29.85,0 58.26,-9.4 82.16,-27.17 7.71,-5.75 14.77,-12.22 21.08,-19.33l15.68 33.74 48.45 -22.53 -68.09 -146.38c-0.48,-1.09 -0.98,-2.15 -1.39,-2.98l-29.69 -63.83 -0.17 0 -12.37 -26.7 240.81 112.01 22.53 -48.44 -34.72 -16.16c7.28,-6.3 13.89,-13.36 19.7,-21.05z"/>
   <path class="fil0" d="M247.36 1017.47l63.14 0 -118.9 -242.45 -72.71 0 -118.89 242.45 158.52 0 0 -42.91 -75.94 0 72.61 -157.7 92.16 200.62zm243.86 -242.45l-158.53 0 0 42.52 147.92 0c34.43,0 52.84,11.78 52.84,38.89 0,26.61 -18.41,39.77 -52.84,39.77l-147.92 0 0 121.27 59.4 0 0 -78.95 92.16 0c70.84,0 109.74,-27.1 109.74,-82.09 0,-48.9 -32.66,-81.41 -102.77,-81.41zm320.96 242.45l63.14 0 -118.9 -242.45 -72.71 0 -118.9 242.45 158.53 0 0 -42.91 -75.94 0 72.61 -157.7 92.16 200.62zm343.31 -53.71c0,-34.27 -9.57,-51.26 -40.36,-59.21 23.82,-7.27 46.92,-25.33 46.92,-60.98 0,-48.12 -37.76,-68.54 -105.69,-68.54l-158.84 0 0 242.45 59.09 0 0 -91.13 86.23 0c41.5,0 53.57,13.16 53.57,41.93 0,27.69 0,37.41 8.11,49.2l66.05 0c-7.7,-7.66 -15.08,-23.17 -15.08,-53.71zm-98.71 -78.26l-100.17 0 0 -67.95 97.57 0c34.85,0 47.33,11.78 47.33,31.91 0,19.05 -9.88,36.04 -44.73,36.04zm362.34 4.81l0 -1.38c27.88,-7.95 42.96,-23.17 42.96,-51.95 0,-48.51 -37.86,-61.96 -99.44,-61.96l-162.58 0 0 42.52 165.5 0c23.51,0 39.63,7.66 39.63,28.48 0,20.72 -14.35,28.77 -39.63,28.77l-165.5 0 0 142.68 154.89 0c79.99,0 117.02,-16.6 117.02,-71.68 0,-31.23 -19.04,-47.82 -52.84,-55.48zm-52.11 84.25l-107.56 0 0 -60 107.56 0c28.61,0 44.42,6.58 44.42,27.4 0,20.13 -10.61,32.6 -44.42,32.6zm272.47 -101.54c-45.15,-5.89 -87.69,-7.27 -87.69,-30.15 0,-16.59 12.48,-30.15 65.33,-30.15 47.33,0 68.65,15.61 70.84,32.9l57.21 0c-1.46,-42.91 -36.72,-75.51 -127.32,-75.51 -94.35,0 -122.95,36.73 -122.95,76.59 0,38.1 22.05,58.13 92.16,69.23 70.01,11.1 109.64,8.74 109.64,33.68 0,18.36 -20.49,30.44 -69.28,30.44 -46.6,0 -77.5,-12.86 -78.95,-38.1l-61.58 0c0,49.2 46.6,80.72 135.33,80.72 91.44,0 137.31,-28.08 137.31,-80.72 0,-54.01 -49.2,-59.6 -120.04,-68.93z"/>
   <path class="fil0" d="M219.41 1136.45c8.81,0 15.49,-5.87 15.49,-13.69 0,-8.35 -6.08,-12.08 -13.56,-14.03 -5.34,-1.33 -8.62,-3.54 -8.62,-7.14 0,-3.28 2.86,-5.68 6.53,-5.68 3.88,0 6.82,2.75 6.82,6.42l8.16 0c0,-7.77 -6.42,-13.58 -14.91,-13.58 -8.43,0 -14.77,5.68 -14.77,13.11 0,8.09 5.82,12.16 12.98,13.96 5.4,1.34 9.22,3.54 9.22,7.48 0,3.41 -3.14,6.02 -7.22,6.02 -4.28,0 -7.56,-3.01 -7.56,-7.03l-8.14 0c0,8.09 6.74,14.17 15.57,14.17zm71.62 0c13.83,0 24.26,-10.29 24.26,-23.85 0,-13.56 -10.43,-23.86 -24.26,-23.86 -13.77,0 -24.24,10.3 -24.24,23.86 0,13.56 10.47,23.85 24.24,23.85zm0 -7.67c-9.09,0 -16.02,-6.95 -16.02,-16.17 0,-9.22 6.93,-16.18 16.02,-16.18 9.15,0 16.1,6.95 16.1,16.18 0,9.22 -6.95,16.17 -16.1,16.17zm66.54 -0.61l0 -38.62 -7.94 0 0 46.1 24.32 0 0 -7.48 -16.38 0zm65.42 8.28c10.82,0 18.96,-7.93 18.96,-18.56l0 -28.34 -7.93 0 0 28.2c0,6.27 -4.68,11.02 -11.03,11.02 -6.29,0 -11.04,-4.75 -11.04,-11.02l0 -28.2 -7.88 0 0 28.34c0,10.63 8.16,18.56 18.92,18.56zm76.64 -7.67c-9.09,0 -16.02,-6.95 -16.02,-16.17 0,-9.22 6.93,-16.18 16.02,-16.18 7.16,0 13.03,4.28 15.17,10.57l8.49 0c-2.48,-10.7 -11.82,-18.26 -23.66,-18.26 -13.77,0 -24.25,10.3 -24.25,23.86 0,12.69 9.15,22.52 21.65,23.71l-3.48 4.36 4.2 1.93c0.42,-0.47 1.21,-0.93 2.14,-0.93 1.61,0 2.96,1.19 2.96,2.86 0,1.61 -1.35,2.88 -2.96,2.88 -1.53,0 -2.94,-1.27 -2.94,-2.88l-4.55 0c0,3.94 3.22,7.03 7.48,7.03 4.28,0 7.48,-3.09 7.48,-7.03 0,-3.73 -2.67,-6.61 -6.35,-6.74l1.21 -1.48c10.63,-1 18.77,-8.22 21.05,-18.11l-8.49 0c-2.14,6.29 -8.01,10.57 -15.17,10.57zm84.06 -43.71c4.66,0 7.22,-3.73 7.22,-8.81l-5.29 0c0,1.67 -1.27,2.94 -2.88,2.94 -2.6,0 -4.07,-3.14 -7.96,-3.14 -4.68,0 -7.27,3.88 -7.27,8.82l5.34 0c0,-1.61 1.14,-2.88 2.8,-2.88 2.54,0 4.02,3.07 8.03,3.07zm-4.49 51.39c13.83,0 24.26,-10.29 24.26,-23.85 0,-13.56 -10.43,-23.86 -24.26,-23.86 -13.77,0 -24.24,10.3 -24.24,23.86 0,13.56 10.47,23.85 24.24,23.85zm0 -7.67c-9.09,0 -16.02,-6.95 -16.02,-16.17 0,-9.22 6.93,-16.18 16.02,-16.18 9.15,0 16.1,6.95 16.1,16.18 0,9.22 -6.95,16.17 -16.1,16.17zm66.54 -0.61l0 -11.97 15.83 0 0 -7.48 -15.83 0 0 -11.69 18.05 0 0 -7.48 -25.99 0 0 46.1 26.33 0 0 -7.48 -18.39 0zm65.76 8.28c8.81,0 15.49,-5.87 15.49,-13.69 0,-8.35 -6.08,-12.08 -13.56,-14.03 -5.34,-1.33 -8.62,-3.54 -8.62,-7.14 0,-3.28 2.86,-5.68 6.53,-5.68 3.88,0 6.82,2.75 6.82,6.42l8.16 0c0,-7.77 -6.42,-13.58 -14.91,-13.58 -8.43,0 -14.77,5.68 -14.77,13.11 0,8.09 5.81,12.16 12.98,13.96 5.4,1.34 9.22,3.54 9.22,7.48 0,3.41 -3.14,6.02 -7.22,6.02 -4.28,0 -7.56,-3.01 -7.56,-7.03l-8.14 0c0,8.09 6.74,14.17 15.57,14.17zm125.28 -0.79l8.75 0 -18.16 -46.1 -9.43 0 -18.17 46.1 8.54 0 3.75 -9.83 20.99 0 3.73 9.83zm-21.91 -17.18l7.69 -20.25 7.69 20.25 -15.38 0zm78.38 17.98c10.82,0 18.96,-7.93 18.96,-18.56l0 -28.34 -7.93 0 0 28.2c0,6.27 -4.68,11.02 -11.03,11.02 -6.29,0 -11.04,-4.75 -11.04,-11.02l0 -28.2 -7.88 0 0 28.34c0,10.63 8.16,18.56 18.92,18.56zm84.46 -46.9l-32.88 0 0 7.48 12.5 0 0 38.62 7.95 0 0 -38.62 12.42 0 0 -7.48zm51.91 46.9c13.83,0 24.26,-10.29 24.26,-23.85 0,-13.56 -10.43,-23.86 -24.26,-23.86 -13.77,0 -24.24,10.3 -24.24,23.86 0,13.56 10.47,23.85 24.24,23.85zm0 -7.67c-9.09,0 -16.02,-6.95 -16.02,-16.17 0,-9.22 6.93,-16.18 16.02,-16.18 9.15,0 16.1,6.95 16.1,16.18 0,9.22 -6.95,16.17 -16.1,16.17zm98.42 -39.23l-14.7 33.87 -14.77 -33.87 -10.34 0 0 46.1 7.94 0 0 -32.62 14.24 32.62 5.61 0 14.3 -32.75 0 32.75 7.95 0 0 -46.1 -10.23 0zm68.82 46.9c13.83,0 24.26,-10.29 24.26,-23.85 0,-13.56 -10.43,-23.86 -24.26,-23.86 -13.77,0 -24.25,10.3 -24.25,23.86 0,13.56 10.47,23.85 24.25,23.85zm0 -7.67c-9.09,0 -16.02,-6.95 -16.02,-16.17 0,-9.22 6.93,-16.18 16.02,-16.18 9.15,0 16.1,6.95 16.1,16.18 0,9.22 -6.95,16.17 -16.1,16.17zm84.78 -39.23l-32.88 0 0 7.48 12.5 0 0 38.62 7.95 0 0 -38.62 12.42 0 0 -7.48zm51.65 7.48l0 -7.48 -19.91 0 0 7.48 5.95 0 0 31.14 -5.95 0 0 7.48 19.91 0 0 -7.48 -6.01 0 0 -31.14 6.01 0zm66.83 -7.48l-13.9 35.61 -13.9 -35.61 -8.96 0 18.66 46.1 8.22 0 18.56 -46.1 -8.67 0zm68.41 46.1l8.75 0 -18.16 -46.1 -9.43 0 -18.16 46.1 8.54 0 3.75 -9.83 20.99 0 3.73 9.83zm-21.91 -17.18l7.69 -20.25 7.69 20.25 -15.38 0zm75.31 17.98c8.81,0 15.49,-5.87 15.49,-13.69 0,-8.35 -6.08,-12.08 -13.56,-14.03 -5.34,-1.33 -8.62,-3.54 -8.62,-7.14 0,-3.28 2.86,-5.68 6.53,-5.68 3.88,0 6.82,2.75 6.82,6.42l8.16 0c0,-7.77 -6.42,-13.58 -14.91,-13.58 -8.43,0 -14.77,5.68 -14.77,13.11 0,8.09 5.81,12.16 12.98,13.96 5.4,1.34 9.22,3.54 9.22,7.48 0,3.41 -3.14,6.02 -7.22,6.02 -4.28,0 -7.56,-3.01 -7.56,-7.03l-8.14 0c0,8.09 6.74,14.17 15.57,14.17z"/>
  </g>
 </g>
</svg>
