<?xml version="1.0" encoding="UTF-8"?>
<!DOCTYPE svg PUBLIC "-//W3C//DTD SVG 1.1//EN" "http://www.w3.org/Graphics/SVG/1.1/DTD/svg11.dtd">
<!-- Creator: CorelDRAW 2021 (64 Bit) -->
<svg xmlns="http://www.w3.org/2000/svg" xml:space="preserve" width="104.963mm" height="75.3859mm" version="1.1" style="shape-rendering:geometricPrecision; text-rendering:geometricPrecision; image-rendering:optimizeQuality; fill-rule:evenodd; clip-rule:evenodd"
viewBox="0 0 10482.02 7528.35"
 xmlns:xlink="http://www.w3.org/1999/xlink"
 xmlns:xodm="http://www.corel.com/coreldraw/odm/2003">
 <defs>
  <style type="text/css">
   <![CDATA[
    .fil0 {fill:black;fill-rule:nonzero}
   ]]>
  </style>
 </defs>
 <g id="Camada_x0020_1">
  <metadata id="CorelCorpID_0Corel-Layer"/>
  <path class="fil0" d="M2143.65 166.22c-379.24,244.17 -488.34,358.46 -488.34,503.92 0,77.92 -41.56,161.05 -103.9,202.6 -109.09,67.54 -140.27,264.95 -51.95,353.27 41.56,41.56 -5.19,98.71 -145.46,187.03 -498.73,332.49 -1007.85,961.09 -1210.45,1496.19 -57.14,150.66 -119.49,467.55 -135.08,701.34 -145.46,2052.06 1594.89,3574.21 4426.2,3875.53 1714.38,181.82 3579.4,-233.78 4675.57,-1044.21 405.22,-301.31 888.36,-857.18 1085.77,-1252.02 244.17,-483.14 306.51,-836.4 280.54,-1527.35 -20.78,-529.9 -36.36,-597.44 -213,-976.67 -218.19,-446.77 -659.77,-955.89 -1075.38,-1236.43 -223.39,-155.85 -254.55,-192.22 -228.58,-311.71 25.97,-129.87 -77.92,-306.51 -181.82,-306.51 -20.78,0 -31.17,-67.54 -15.59,-150.66 15.59,-129.87 -15.59,-176.63 -259.76,-353.27 -550.68,-410.41 -602.63,-415.6 -961.09,-57.14l-270.14 264.95 -405.22 -83.12c-1023.43,-218.19 -2119.59,-218.19 -3252.12,0l-457.17 88.32 -270.14 -270.14c-150.66,-150.66 -322.09,-270.14 -379.24,-270.14 -57.15,0 -223.39,72.73 -363.66,166.24l0 -0.02zm1729.97 1626.06c145.46,285.73 358.46,742.9 472.75,1013.04 114.28,270.14 316.9,748.09 451.98,1059.8 379.24,898.75 368.85,1189.67 -62.35,1335.13 -327.29,114.29 -2561.17,98.71 -3194.98,-20.78 -389.63,-77.92 -524.71,-83.12 -613.02,-36.36 -93.51,46.76 -129.87,41.56 -213,-31.17 -254.55,-228.58 -607.82,-1246.81 -483.14,-1371.5 36.36,-36.36 290.92,-57.14 607.82,-57.14 789.66,0 1652.03,207.81 2748.19,654.58 88.32,36.36 88.32,25.97 10.39,-161.05 -62.35,-145.46 -98.71,-467.55 -124.68,-1111.75 -31.17,-758.48 -57.14,-955.89 -155.85,-1194.87 -150.66,-384.44 -171.44,-400.02 -483.14,-431.19 -150.66,-15.59 -410.41,-72.73 -581.85,-129.87 -171.44,-62.35 -374.04,-119.49 -451.98,-140.27 -83.12,-15.59 -145.46,-62.35 -145.46,-98.71 0,-57.14 41.56,-62.35 223.39,-15.59 119.49,31.17 306.51,51.95 420.8,46.76 145.46,-5.19 238.98,25.97 353.27,119.49 135.08,114.29 249.36,166.24 249.36,109.09 0,-10.39 -93.51,-114.29 -213,-233.78 -181.82,-176.63 -207.81,-233.78 -176.63,-353.27 31.17,-124.68 25.97,-129.87 -51.95,-67.54 -77.92,62.34 -98.71,62.35 -155.85,-15.59 -62.35,-83.12 -67.54,-77.92 -88.32,36.36 -20.78,98.71 0,135.08 77.92,145.46 161.05,25.97 161.05,129.87 5.19,166.24 -114.29,31.17 -171.44,5.19 -311.71,-129.87 -98.71,-93.51 -176.63,-187.03 -176.63,-213 0,-41.56 503.92,-426 623.41,-472.75 51.95,-15.59 259.76,155.85 628.61,524.71 467.55,477.95 581.85,628.61 810.43,1075.38l0.02 0zm4602.83 -1267.6l166.24 145.46 -187.03 187.03c-155.85,155.85 -207.81,181.82 -327.29,150.66 -155.85,-36.36 -155.85,-140.27 5.19,-166.24 77.92,-10.39 98.71,-46.76 77.92,-145.46 -20.78,-114.29 -25.97,-119.49 -88.32,-36.36 -57.14,77.92 -77.92,77.92 -155.85,15.59 -77.92,-62.34 -83.12,-57.14 -51.95,57.14 25.97,98.71 -10.39,176.63 -176.63,353.27 -119.49,129.87 -213,238.98 -213,249.36 0,51.95 114.29,0 254.55,-119.49 124.68,-103.9 192.22,-124.68 311.71,-98.71 88.32,15.59 197.41,10.39 249.36,-15.59 51.95,-25.97 171.44,-62.35 264.95,-77.92 124.68,-25.97 166.24,-15.59 166.24,41.56 0,41.56 -62.35,88.32 -140.27,103.9 -83.12,15.59 -322.09,83.12 -535.09,155.85 -218.19,72.73 -477.95,129.87 -576.66,129.87 -238.98,0 -322.09,93.51 -462.36,545.48 -88.32,290.92 -114.29,519.5 -124.68,1142.92 -10.39,540.29 -41.56,846.8 -98.71,1002.65 -72.73,207.81 -72.73,223.39 5.19,187.03 1090.97,-457.17 2561.17,-768.87 3205.36,-675.36 223.39,36.36 233.78,46.76 233.78,202.6 0,374.04 -218.19,924.72 -503.92,1277.99 -98.71,119.49 -103.9,119.49 -244.17,31.17 -129.87,-88.32 -155.85,-88.32 -566.26,0 -529.9,109.09 -2083.23,161.05 -2836.51,88.32 -503.92,-46.76 -555.87,-62.35 -670.17,-197.41 -181.82,-207.81 -140.27,-477.95 192.22,-1267.6 389.63,-914.34 867.58,-1974.13 1023.43,-2259.86 140.27,-244.17 597.44,-768.87 1007.85,-1153.31l233.78 -218.19 197.41 114.29c109.09,57.14 270.14,171.44 363.66,249.36l0 0.01zm-1885.81 67.54c233.78,41.56 441.58,88.32 457.17,109.09 15.59,15.59 -41.56,103.9 -129.87,197.41 -228.58,244.17 -353.27,446.77 -607.82,955.89 -290.92,597.44 -1070.19,2420.91 -1070.19,2514.42 0,67.54 -316.9,-628.61 -607.82,-1355.92 -405.22,-1002.65 -815.63,-1771.52 -1148.11,-2135.18 -145.46,-161.05 -135.08,-171.44 275.34,-254.55 789.66,-166.24 1984.52,-176.63 2831.32,-31.17l-0.01 0zm-4187.24 945.5c197.41,67.54 426,124.68 503.92,124.68 124.68,0 155.85,36.36 254.55,296.12 88.32,233.78 119.49,446.77 135.08,924.72 15.59,342.87 31.17,742.9 36.36,888.36l15.59 270.14 -337.68 -129.87c-722.12,-270.14 -1387.08,-394.82 -2119.59,-400.02l-685.75 -5.19 25.97 -129.87c161.05,-737.7 535.09,-1283.19 1236.43,-1797.5 337.68,-254.55 316.9,-254.55 935.12,-41.56l-0.01 -0.01zm6545.8 -31.17c337.68,213 711.72,602.63 966.29,992.26 192.22,296.12 238.98,410.41 342.87,836.4l31.17 145.46 -550.68 0c-644.19,0 -1329.94,124.68 -2109.2,374.04l-545.48 176.63 15.59 -753.29c15.59,-701.34 72.73,-1111.75 213,-1475.4 41.56,-109.09 88.32,-140.27 202.6,-140.27 83.12,0 254.55,-36.36 379.24,-83.12 259.76,-93.51 670.17,-218.19 753.29,-223.39 25.97,-5.19 166.24,67.54 301.31,150.66l0 0.01zm-3423.56 3833.97c171.44,88.32 1558.52,181.82 2187.13,150.66 316.9,-15.59 826.02,-72.73 1127.33,-119.49 451.98,-72.73 571.46,-77.92 623.41,-25.97 135.08,140.27 -810.43,800.04 -1574.11,1090.97 -1807.88,696.14 -4026.19,613.02 -5693.81,-202.6 -613.02,-301.31 -1309.16,-810.43 -1220.84,-898.75 41.56,-41.56 155.85,-41.56 410.41,5.19 914.34,155.85 1553.33,187.03 2483.24,124.68 903.94,-62.35 1111.75,-109.09 1267.6,-296.12 62.35,-72.73 77.92,-72.73 176.63,15.59 62.35,57.14 155.85,124.68 213,155.85l0.01 0z"/>
 </g>
</svg>
